<?xml version="1.0" encoding="UTF-8" standalone="no"?>
<!DOCTYPE svg PUBLIC "-//W3C//DTD SVG 1.1//EN" "http://www.w3.org/Graphics/SVG/1.1/DTD/svg11.dtd">
<svg version="1.1" xmlns="http://www.w3.org/2000/svg" xmlns:xlink="http://www.w3.org/1999/xlink" preserveAspectRatio="xMidYMid meet" viewBox="0 0 400 500" width="400" height="500"><defs><path d="M237.92 474.55C228.22 483.28 214.81 488.69 200 488.69C185.19 488.69 171.78 483.28 162.07 474.55C152.36 465.81 146.36 453.74 146.36 440.4C146.36 427.07 152.36 415 162.07 406.26C171.78 397.52 185.19 392.12 200 392.12C214.81 392.12 228.22 397.52 237.92 406.26C247.63 415 253.63 427.07 253.63 440.4C253.63 453.74 247.63 465.81 237.92 474.55Z" id="g27zxgCROF"></path><path d="M156.87 479.23C145.82 469.28 138.98 455.55 138.98 440.4C138.98 425.26 145.82 411.53 156.87 401.58C167.92 391.63 183.17 385.47 200 385.47C216.82 385.47 232.08 391.63 243.13 401.58C254.18 411.53 261.02 425.26 261.02 440.4C261.02 455.55 254.18 469.28 243.13 479.23C232.08 489.17 216.82 495.33 200 495.33C183.17 495.33 167.92 489.17 156.87 479.23ZM167.31 410.97C158.93 418.51 153.75 428.92 153.75 440.4C153.75 451.88 158.93 462.29 167.31 469.83C175.68 477.37 187.25 482.04 200 482.04C212.75 482.04 224.31 477.37 232.69 469.83C241.06 462.29 246.25 451.88 246.25 440.4C246.25 428.92 241.06 418.51 232.69 410.97C224.31 403.44 212.75 398.77 200 398.77C187.25 398.77 175.68 403.44 167.31 410.97Z" id="biMr1JwOS"></path><path d="M200 387.6C163.18 387.6 142.73 387.6 138.63 387.6C136.6 387.6 134.75 386.85 133.41 385.65C132.08 384.45 131.25 382.79 131.25 380.95C131.25 380.86 131.25 380.42 131.25 379.62C131.25 378.82 131.25 378.37 131.25 378.28C131.25 362.82 127.87 347.71 121.55 333.89C115.23 320.06 105.97 307.54 94.19 297.25C78.4 283.46 66.32 266.91 58.49 248.86C50.67 230.81 47.09 211.24 48.3 191.4C50.39 157.28 66.48 126.39 91.51 103.39C116.54 80.4 150.5 65.3 188.33 62.75C209.74 61.31 230.66 63.79 250.14 69.91C269.62 76.02 287.66 85.77 303.32 98.85C318.77 111.76 330.92 127.35 339.21 144.45C347.5 161.55 351.93 180.17 351.93 199.13C351.93 217.33 348 235 340.5 251.34C333 267.68 321.94 282.7 307.66 295.6C295.11 306.94 285.39 319.95 278.79 333.96C272.2 347.96 268.75 362.96 268.75 378.28C268.75 378.37 268.75 378.81 268.75 379.61C268.75 380.42 268.75 380.86 268.75 380.95C268.75 382.79 267.92 384.45 266.58 385.65C265.25 386.85 263.4 387.6 261.36 387.6C253.18 387.6 232.73 387.6 200 387.6ZM200 374.3C232.43 374.3 250.45 374.3 254.05 374.3C254.62 357.94 258.71 341.97 266.01 327.07C273.3 312.16 283.81 298.32 297.2 286.22C310.08 274.57 320.07 261.01 326.84 246.26C333.61 231.51 337.16 215.56 337.16 199.13C337.16 182.01 333.16 165.2 325.67 149.76C318.19 134.32 307.22 120.25 293.27 108.6C279.14 96.79 262.85 87.99 245.26 82.47C227.67 76.94 208.77 74.7 189.43 76.01C155.29 78.31 124.64 91.94 102.05 112.69C79.46 133.45 64.93 161.33 63.05 192.13C61.95 210.05 65.18 227.72 72.25 244.02C79.31 260.32 90.22 275.25 104.48 287.71C117.17 298.8 127.26 312.18 134.31 326.93C141.37 341.68 145.39 357.78 145.95 374.3C153.16 374.3 171.17 374.3 200 374.3Z" id="bi7RTyJU"></path><path d="M200 396.69C164.05 396.69 144.08 396.69 140.08 396.69C136.29 396.69 132.86 395.31 130.38 393.07C127.9 390.84 126.36 387.75 126.36 384.34C126.36 384.27 126.36 383.93 126.36 383.31C126.36 382.69 126.36 382.35 126.36 382.28C126.36 378.87 127.9 375.78 130.38 373.54C132.86 371.31 136.29 369.93 140.08 369.93C144.08 369.93 164.05 369.93 200 369.93C235.95 369.93 255.92 369.93 259.91 369.93C263.7 369.93 267.13 371.31 269.62 373.54C272.1 375.78 273.64 378.87 273.64 382.28C273.64 382.35 273.64 382.69 273.64 383.31C273.64 383.93 273.64 384.27 273.64 384.34C273.64 387.75 272.1 390.84 269.62 393.07C267.13 395.31 263.7 396.69 259.91 396.69C251.92 396.69 231.95 396.69 200 396.69Z" id="jGbKDQ1ga"></path><path d="M200 403.34C164.74 403.34 145.15 403.34 141.23 403.34C135.09 403.34 129.53 401.09 125.5 397.47C121.47 393.84 118.98 388.83 118.98 383.31C118.98 377.78 121.47 372.78 125.5 369.15C129.53 365.52 135.09 363.28 141.23 363.28C145.15 363.28 164.74 363.28 200 363.28C235.26 363.28 254.85 363.28 258.77 363.28C264.9 363.28 270.47 365.52 274.5 369.15C278.52 372.78 281.02 377.78 281.02 383.31C281.02 388.83 278.52 393.84 274.5 397.47C270.47 401.09 264.91 403.34 258.77 403.34C250.93 403.34 231.34 403.34 200 403.34ZM135.94 378.55C134.58 379.77 133.75 381.45 133.75 383.31C133.75 385.17 134.59 386.85 135.94 388.07C137.29 389.29 139.17 390.05 141.23 390.05C145.15 390.05 164.74 390.05 200 390.05C235.26 390.05 254.85 390.05 258.77 390.05C260.83 390.05 262.7 389.29 264.06 388.07C265.41 386.85 266.25 385.17 266.25 383.31C266.25 381.45 265.41 379.77 264.06 378.55C262.7 377.33 260.83 376.57 258.77 376.57C254.85 376.57 235.26 376.57 200 376.57L141.23 376.57C138.61 377.08 136.84 377.73 135.94 378.55Z" id="hclsLQPra"></path><path d="M200 423.46C164.05 423.46 144.08 423.46 140.08 423.46C136.29 423.46 132.86 422.07 130.38 419.84C127.9 417.6 126.36 414.52 126.36 411.1C126.36 411.04 126.36 410.69 126.36 410.07C126.36 409.46 126.36 409.11 126.36 409.04C126.36 405.63 127.9 402.55 130.38 400.31C132.86 398.07 136.29 396.69 140.08 396.69C144.08 396.69 164.05 396.69 200 396.69C235.95 396.69 255.92 396.69 259.91 396.69C263.7 396.69 267.13 398.07 269.62 400.31C272.1 402.55 273.64 405.63 273.64 409.04C273.64 409.11 273.64 409.46 273.64 410.07C273.64 410.69 273.64 411.04 273.64 411.1C273.64 414.52 272.1 417.6 269.62 419.84C267.13 422.07 263.7 423.46 259.91 423.46C251.92 423.46 231.95 423.46 200 423.46Z" id="b17U422A6b"></path><path d="M200 430.11C164.74 430.11 145.15 430.11 141.23 430.11C135.09 430.11 129.53 427.86 125.5 424.23C121.47 420.61 118.98 415.6 118.98 410.08C118.98 404.55 121.47 399.55 125.5 395.92C129.53 392.29 135.09 390.05 141.23 390.05C145.15 390.05 164.74 390.05 200 390.05C235.26 390.05 254.85 390.05 258.77 390.05C264.9 390.05 270.47 392.29 274.5 395.92C278.52 399.55 281.02 404.55 281.02 410.08C281.02 415.6 278.52 420.61 274.5 424.23C270.47 427.86 264.91 430.11 258.77 430.11C250.93 430.11 231.34 430.11 200 430.11ZM135.94 405.32C134.58 406.53 133.75 408.22 133.75 410.08C133.75 411.93 134.59 413.62 135.94 414.84C137.29 416.06 139.17 416.81 141.23 416.81C145.15 416.81 164.74 416.81 200 416.81C235.26 416.81 254.85 416.81 258.77 416.81C260.83 416.81 262.7 416.06 264.06 414.84C265.41 413.62 266.25 411.93 266.25 410.08C266.25 408.22 265.41 406.54 264.06 405.32C262.7 404.1 260.83 403.34 258.77 403.34C254.85 403.34 235.26 403.34 200 403.34L141.23 403.34C138.61 403.84 136.84 404.5 135.94 405.32Z" id="a9bJHa03m2"></path><path d="M200 450.22C164.05 450.22 144.08 450.22 140.08 450.22C136.29 450.22 132.86 448.84 130.38 446.61C127.9 444.37 126.36 441.28 126.36 437.87C126.36 437.8 126.36 437.46 126.36 436.84C126.36 436.22 126.36 435.88 126.36 435.81C126.36 432.4 127.9 429.31 130.38 427.08C132.86 424.84 136.29 423.46 140.08 423.46C144.08 423.46 164.05 423.46 200 423.46C235.95 423.46 255.92 423.46 259.91 423.46C263.7 423.46 267.13 424.84 269.62 427.08C272.1 429.31 273.64 432.4 273.64 435.81C273.64 435.88 273.64 436.22 273.64 436.84C273.64 437.46 273.64 437.8 273.64 437.87C273.64 441.28 272.1 444.37 269.62 446.61C267.13 448.84 263.7 450.22 259.91 450.22C251.92 450.22 231.95 450.22 200 450.22Z" id="d2rifG9ifc"></path><path d="M200 456.87C164.74 456.87 145.15 456.87 141.23 456.87C135.09 456.87 129.53 454.62 125.5 451C121.47 447.37 118.98 442.36 118.98 436.84C118.98 431.32 121.47 426.31 125.5 422.68C129.53 419.06 135.09 416.81 141.23 416.81C145.15 416.81 164.74 416.81 200 416.81C235.26 416.81 254.85 416.81 258.77 416.81C264.9 416.81 270.47 419.06 274.5 422.68C278.52 426.31 281.02 431.32 281.02 436.84C281.02 442.36 278.52 447.37 274.5 451C270.47 454.62 264.91 456.87 258.77 456.87C250.93 456.87 231.34 456.87 200 456.87ZM135.94 432.08C134.58 433.3 133.75 434.98 133.75 436.84C133.75 438.7 134.59 440.38 135.94 441.6C137.29 442.82 139.17 443.58 141.23 443.58C145.15 443.58 164.74 443.58 200 443.58C235.26 443.58 254.85 443.58 258.77 443.58C260.83 443.58 262.7 442.82 264.06 441.6C265.41 440.38 266.25 438.7 266.25 436.84C266.25 434.98 265.41 433.3 264.06 432.08C262.7 430.86 260.83 430.11 258.77 430.11C254.85 430.11 235.26 430.11 200 430.11L141.23 430.11C138.61 430.61 136.84 431.27 135.94 432.08Z" id="cmCiECqyS"></path><path d="M119.2 235.06C103.18 208.36 90.91 180.74 88.18 150.06C87.76 144.41 87.67 138.53 87.97 132.59C88.27 126.65 88.98 120.64 90.16 114.74C80.17 125.27 71.99 137.22 66.09 150.2C60.2 163.17 56.57 177.16 55.68 191.77C54.47 211.54 58.17 230.41 65.77 247.5C73.38 264.58 84.9 279.87 99.33 292.48C111.07 302.73 120.29 314.85 126.84 328.05C133.38 341.26 137.26 355.56 138.31 370.19C134.9 370.8 131.92 372.46 129.78 374.77C127.65 377.09 126.36 380.06 126.36 383.31C126.36 387 128.03 390.35 130.72 392.77C133.41 395.19 137.12 396.69 141.23 396.69C137.12 396.69 133.41 398.19 130.72 400.61C128.03 403.03 126.36 406.38 126.36 410.08C126.36 413.77 128.03 417.12 130.72 419.54C133.41 421.96 137.12 423.46 141.23 423.46C137.12 423.46 133.41 424.96 130.72 427.38C128.03 429.8 126.36 433.14 126.36 436.84C126.36 440.54 128.03 443.88 130.72 446.3C133.41 448.73 137.12 450.22 141.23 450.22C143.11 450.22 152.51 450.22 169.44 450.22C186.37 450.22 195.78 450.22 197.66 450.22C197.74 426.58 198.63 403.2 195.94 380.46C193.25 357.72 186.97 335.62 172.73 314.55C155 287.54 135.23 261.76 119.2 235.06Z" id="agkv4QrzL"></path><path d="M194.78 374.63C193.44 373.42 192.61 371.76 192.61 369.93C192.61 366.2 192.61 347.56 192.61 314C192.61 280.45 192.61 261.81 192.61 258.08C192.61 256.25 193.44 254.58 194.78 253.38C196.11 252.18 197.96 251.43 200 251.43C202.04 251.43 203.88 252.18 205.22 253.38C206.55 254.58 207.38 256.25 207.38 258.08C207.38 261.81 207.38 280.45 207.38 314C207.38 347.56 207.38 366.2 207.38 369.92C207.38 371.76 206.56 373.42 205.22 374.62C203.88 375.83 202.04 376.57 200 376.57C197.96 376.57 196.11 375.83 194.78 374.63Z" id="bYvLrfN4p"></path><path d="M166.87 254.22C159.45 248.92 155.19 243.5 154.84 243.06C153.68 241.55 153.31 239.76 153.64 238.08C153.97 236.41 155.02 234.85 156.69 233.8C158.37 232.76 160.35 232.42 162.21 232.72C164.07 233.02 165.81 233.96 166.97 235.46C167.03 235.53 170.21 239.53 175.65 243.5C181.08 247.48 188.78 251.43 197.86 251.43C206.92 251.43 214.54 247.49 219.91 243.52C225.28 239.56 228.4 235.57 228.46 235.49C229.62 233.99 231.35 233.04 233.2 232.74C235.06 232.43 237.05 232.76 238.72 233.79C240.4 234.83 241.45 236.38 241.8 238.04C242.15 239.71 241.79 241.49 240.64 243.01C240.31 243.45 236.11 248.88 228.76 254.2C221.4 259.52 210.87 264.73 197.86 264.73C184.88 264.73 174.29 259.53 166.87 254.22Z" id="bEBdfLha0"></path></defs><g><g><g><use xlink:href="#g27zxgCROF" opacity="1" fill="#b3b8bd" fill-opacity="1"></use><g><use xlink:href="#g27zxgCROF" opacity="1" fill-opacity="0" stroke="#000000" stroke-width="1" stroke-opacity="0"></use></g></g><g><use xlink:href="#biMr1JwOS" opacity="1" fill="#2e4c59" fill-opacity="1"></use><g><use xlink:href="#biMr1JwOS" opacity="1" fill-opacity="0" stroke="#000000" stroke-width="1" stroke-opacity="0"></use></g></g><g><use xlink:href="#bi7RTyJU" opacity="1" fill="#2e4c59" fill-opacity="1"></use><g><use xlink:href="#bi7RTyJU" opacity="1" fill-opacity="0" stroke="#000000" stroke-width="1" stroke-opacity="0"></use></g></g><g><use xlink:href="#jGbKDQ1ga" opacity="1" fill="#b3b8bd" fill-opacity="1"></use><g><use xlink:href="#jGbKDQ1ga" opacity="1" fill-opacity="0" stroke="#000000" stroke-width="1" stroke-opacity="0"></use></g></g><g><use xlink:href="#hclsLQPra" opacity="1" fill="#2e4c59" fill-opacity="1"></use><g><use xlink:href="#hclsLQPra" opacity="1" fill-opacity="0" stroke="#000000" stroke-width="1" stroke-opacity="0"></use></g></g><g><use xlink:href="#b17U422A6b" opacity="1" fill="#b3b8bd" fill-opacity="1"></use><g><use xlink:href="#b17U422A6b" opacity="1" fill-opacity="0" stroke="#000000" stroke-width="1" stroke-opacity="0"></use></g></g><g><use xlink:href="#a9bJHa03m2" opacity="1" fill="#2e4c59" fill-opacity="1"></use><g><use xlink:href="#a9bJHa03m2" opacity="1" fill-opacity="0" stroke="#000000" stroke-width="1" stroke-opacity="0"></use></g></g><g><use xlink:href="#d2rifG9ifc" opacity="1" fill="#b3b8bd" fill-opacity="1"></use><g><use xlink:href="#d2rifG9ifc" opacity="1" fill-opacity="0" stroke="#000000" stroke-width="1" stroke-opacity="0"></use></g></g><g><use xlink:href="#cmCiECqyS" opacity="1" fill="#2e4c59" fill-opacity="1"></use><g><use xlink:href="#cmCiECqyS" opacity="1" fill-opacity="0" stroke="#000000" stroke-width="1" stroke-opacity="0"></use></g></g><g><use xlink:href="#agkv4QrzL" opacity="1" fill="#2e4c59" fill-opacity="1"></use><g><use xlink:href="#agkv4QrzL" opacity="1" fill-opacity="0" stroke="#000000" stroke-width="1" stroke-opacity="0"></use></g></g><g><use xlink:href="#bYvLrfN4p" opacity="1" fill="#2e4c59" fill-opacity="1"></use><g><use xlink:href="#bYvLrfN4p" opacity="1" fill-opacity="0" stroke="#000000" stroke-width="1" stroke-opacity="0"></use></g></g><g><use xlink:href="#bEBdfLha0" opacity="1" fill="#2e4c59" fill-opacity="1"></use><g><use xlink:href="#bEBdfLha0" opacity="1" fill-opacity="0" stroke="#000000" stroke-width="1" stroke-opacity="0"></use></g></g></g></g></svg>