<?xml version="1.0" encoding="UTF-8" standalone="no"?>
<!DOCTYPE svg PUBLIC "-//W3C//DTD SVG 1.1//EN" "http://www.w3.org/Graphics/SVG/1.1/DTD/svg11.dtd">
<svg version="1.1" xmlns="http://www.w3.org/2000/svg" xmlns:xlink="http://www.w3.org/1999/xlink" preserveAspectRatio="xMidYMid meet" viewBox="0 0 400 500" width="400" height="500"><defs><path d="M297.87 108.37C270.05 85.65 231.81 72.6 190.12 75.34C154.85 77.65 123.09 91.44 99.68 112.38C76.26 133.33 61.17 161.43 59.22 192.37C58.04 211.28 61.67 229.33 69.15 245.66C76.62 262 87.94 276.62 102.13 288.68C114.72 299.39 124.37 312.21 130.88 326.2C137.39 340.2 140.75 355.36 140.75 370.73C140.75 370.82 140.75 371.24 140.75 372.01L140.75 373.28L201.05 373.28L261.35 373.28L261.35 372C261.35 371.23 261.35 370.81 261.35 370.72C261.35 354.98 265.1 339.67 272.02 325.51C278.94 311.35 289.02 298.33 301.71 287.18C314.49 275.93 324.84 262.55 331.99 247.7C339.14 232.86 343.09 216.54 343.09 199.41C343.09 163.46 325.69 131.08 297.87 108.37Z" id="aa0xGG3ZoG"></path><path d="M52.08 146.44C51.69 146.36 51.3 146.24 50.92 146.09C50.52 145.92 48.53 145.09 44.94 143.6C41.35 142.11 39.36 141.28 38.96 141.11C37.51 140.51 36.46 139.41 35.93 138.12C35.4 136.84 35.39 135.36 36.04 134C36.68 132.64 37.85 131.65 39.22 131.16C40.6 130.66 42.17 130.65 43.62 131.26C44.02 131.42 46.01 132.25 49.6 133.75C53.19 135.24 55.19 136.07 55.58 136.23C57.04 136.84 58.09 137.93 58.62 139.22C59.15 140.51 59.15 141.99 58.51 143.35C58.03 144.35 57.27 145.15 56.35 145.7C55.43 146.25 54.35 146.55 53.25 146.55C52.86 146.55 52.47 146.51 52.08 146.44Z" id="a378SRm0YB"></path><path d="M25.27 207.87C16.21 207.87 11.17 207.87 10.16 207.87C8.58 207.87 7.14 207.27 6.1 206.29C5.06 205.32 4.42 203.97 4.42 202.48C4.42 200.99 5.06 199.64 6.1 198.67C7.14 197.69 8.58 197.09 10.16 197.09C11.17 197.09 16.21 197.09 25.27 197.09C34.34 197.09 39.37 197.09 40.38 197.09C41.97 197.09 43.4 197.69 44.44 198.67C45.48 199.64 46.13 200.99 46.13 202.48C46.13 203.97 45.48 205.32 44.44 206.29C43.4 207.27 41.97 207.87 40.38 207.87C38.36 207.87 33.33 207.87 25.27 207.87Z" id="hcieJSIZO"></path><path d="M333.28 333.8C332.59 333.54 331.94 333.14 331.38 332.62C330.67 331.95 327.11 328.61 320.7 322.6C314.29 316.59 310.73 313.25 310.01 312.58C308.89 311.53 308.33 310.15 308.33 308.77C308.33 307.4 308.89 306.02 310.01 304.96C311.14 303.91 312.61 303.38 314.08 303.38C315.55 303.38 317.02 303.91 318.14 304.96C318.85 305.63 322.42 308.97 328.83 314.98C335.24 320.99 338.8 324.33 339.51 324.99C340.63 326.05 341.19 327.42 341.19 328.8C341.19 330.18 340.63 331.56 339.51 332.62C338.95 333.14 338.3 333.54 337.61 333.8C336.92 334.06 336.18 334.19 335.44 334.19C334.71 334.19 333.97 334.06 333.28 333.8Z" id="b2sYgvRBha"></path><path d="M63.81 333.8C63.12 333.54 62.47 333.14 61.91 332.62C60.79 331.56 60.23 330.18 60.23 328.81C60.23 327.43 60.79 326.05 61.91 324.99C62.62 324.33 66.18 320.99 72.59 314.98C79 308.97 82.56 305.63 83.27 304.96C84.4 303.91 85.87 303.38 87.34 303.38C88.81 303.38 90.28 303.91 91.4 304.96C92.53 306.02 93.09 307.4 93.09 308.77C93.09 310.15 92.53 311.53 91.4 312.58C90.69 313.25 87.13 316.59 80.72 322.6C74.31 328.61 70.75 331.95 70.04 332.62C69.48 333.14 68.83 333.54 68.14 333.8C67.45 334.06 66.71 334.19 65.97 334.19C65.24 334.19 64.5 334.06 63.81 333.8Z" id="d171SbVSIQ"></path><path d="M254.26 208.22C241.69 206.52 227.74 200.47 215.4 190.46C203.05 180.45 194.65 168.38 191.05 156.96C187.44 145.54 188.63 134.77 195.47 127.36C202.31 119.94 213.5 117.29 226.08 118.99C238.65 120.69 252.59 126.74 264.94 136.75C277.28 146.76 285.68 158.83 289.29 170.25C292.89 181.67 291.7 192.44 284.86 199.85C278.02 207.27 266.83 209.92 254.26 208.22Z" id="cr3hYVFBj"></path><path d="M376.14 207.87C367.08 207.87 362.04 207.87 361.04 207.87C359.45 207.87 358.01 207.27 356.97 206.29C355.93 205.32 355.29 203.97 355.29 202.48C355.29 200.99 355.93 199.64 356.97 198.67C358.01 197.69 359.45 197.09 361.04 197.09C362.04 197.09 367.08 197.09 376.14 197.09C385.21 197.09 390.24 197.09 391.25 197.09C392.84 197.09 394.28 197.69 395.32 198.67C396.36 199.64 397 200.99 397 202.48C397 203.97 396.36 205.32 395.32 206.29C394.28 207.27 392.84 207.87 391.25 207.87C389.24 207.87 384.2 207.87 376.14 207.87Z" id="b85TNEVFWZ"></path><path d="M85.18 101.18C84.48 100.92 83.84 100.52 83.27 100C82.56 99.33 79 95.99 72.59 89.98C66.18 83.97 62.62 80.63 61.91 79.97C60.79 78.91 60.23 77.53 60.23 76.16C60.23 74.78 60.79 73.4 61.91 72.34C63.03 71.29 64.5 70.77 65.97 70.77C67.44 70.77 68.92 71.29 70.04 72.34C70.75 73.01 74.31 76.35 80.72 82.36C87.13 88.37 90.69 91.71 91.4 92.38C92.53 93.43 93.09 94.81 93.09 96.19C93.09 97.56 92.53 98.94 91.4 100C90.84 100.52 90.19 100.92 89.5 101.18C88.81 101.44 88.07 101.58 87.34 101.58C86.6 101.58 85.87 101.44 85.18 101.18Z" id="bf1Hhwxe5"></path><path d="M311.92 101.18C311.22 100.92 310.57 100.52 310.01 100C308.89 98.94 308.33 97.56 308.33 96.19C308.33 94.81 308.89 93.43 310.01 92.38C310.73 91.71 314.29 88.37 320.7 82.36C327.11 76.35 330.67 73.01 331.38 72.34C332.5 71.29 333.97 70.77 335.44 70.77C336.92 70.77 338.39 71.29 339.51 72.34C340.63 73.4 341.19 74.78 341.19 76.16C341.19 77.54 340.63 78.91 339.51 79.97C338.8 80.63 335.24 83.97 328.83 89.98C322.42 95.99 318.85 99.33 318.14 100C317.58 100.52 316.93 100.92 316.24 101.18C315.55 101.44 314.81 101.58 314.08 101.58C313.34 101.58 312.61 101.44 311.92 101.18Z" id="b7h2A9FTj"></path><path d="M196.64 55.97C195.6 54.99 194.96 53.65 194.96 52.16C194.96 51.21 194.96 46.49 194.96 37.99C194.96 29.49 194.96 24.77 194.96 23.83C194.96 22.34 195.6 20.99 196.64 20.02C197.68 19.04 199.12 18.44 200.71 18.44C202.3 18.44 203.73 19.04 204.77 20.02C205.81 20.99 206.46 22.34 206.46 23.83C206.46 24.77 206.46 29.49 206.46 37.99C206.46 46.49 206.46 51.21 206.46 52.16C206.46 53.65 205.81 54.99 204.77 55.97C203.73 56.94 202.3 57.55 200.71 57.55C199.12 57.55 197.68 56.94 196.64 55.97Z" id="a4VmKdUXw"></path><path d="M200 488.69C185.19 488.69 171.78 483.28 162.07 474.55C152.36 465.81 146.36 453.74 146.36 440.4C146.36 427.07 152.36 415 162.07 406.26C171.78 397.52 185.19 392.12 200 392.12C214.81 392.12 228.22 397.52 237.92 406.26C247.63 415 253.63 427.07 253.63 440.4C253.63 453.74 247.63 465.81 237.92 474.55C228.22 483.28 214.81 488.69 200 488.69Z" id="b3yIhdYj9"></path><path d="M154.84 243.06C153.68 241.55 153.31 239.76 153.64 238.08C153.97 236.41 155.02 234.85 156.69 233.8C158.37 232.76 160.35 232.42 162.21 232.72C164.07 233.02 165.81 233.96 166.97 235.46C167.03 235.53 170.21 239.53 175.65 243.5C181.08 247.48 188.78 251.43 197.86 251.43C206.92 251.43 214.54 247.49 219.91 243.52C225.28 239.56 228.4 235.57 228.46 235.49C229.62 233.99 231.35 233.04 233.2 232.74C235.06 232.43 237.05 232.76 238.72 233.79C240.4 234.83 241.45 236.38 241.8 238.04C242.15 239.71 241.79 241.49 240.64 243.01C240.31 243.45 236.11 248.88 228.76 254.2C221.4 259.52 210.87 264.73 197.86 264.73C184.88 264.73 174.29 259.53 166.87 254.22C159.45 248.92 155.19 243.5 154.84 243.06Z" id="a3g8rvxgyN"></path><path d="M200 488.69C185.19 488.69 171.78 483.28 162.07 474.55C152.36 465.81 146.36 453.74 146.36 440.4C146.36 427.07 152.36 415 162.07 406.26C171.78 397.52 185.19 392.12 200 392.12C214.81 392.12 228.22 397.52 237.92 406.26C247.63 415 253.63 427.07 253.63 440.4C253.63 453.74 247.63 465.81 237.92 474.55C228.22 483.28 214.81 488.69 200 488.69Z" id="a5kQrQ9LL"></path><path d="M154.84 243.06C153.68 241.55 153.31 239.76 153.64 238.08C153.97 236.41 155.02 234.85 156.69 233.8C158.37 232.76 160.35 232.42 162.21 232.72C164.07 233.02 165.81 233.96 166.97 235.46C167.03 235.53 170.21 239.53 175.65 243.5C181.08 247.48 188.78 251.43 197.86 251.43C206.92 251.43 214.54 247.49 219.91 243.52C225.28 239.56 228.4 235.57 228.46 235.49C229.62 233.99 231.35 233.04 233.2 232.74C235.06 232.43 237.05 232.76 238.72 233.79C240.4 234.83 241.45 236.38 241.8 238.04C242.15 239.71 241.79 241.49 240.64 243.01C240.31 243.45 236.11 248.88 228.76 254.2C221.4 259.52 210.87 264.73 197.86 264.73C184.88 264.73 174.29 259.53 166.87 254.22C159.45 248.92 155.19 243.5 154.84 243.06Z" id="awrDKIgx"></path><path d="M138.98 440.4C138.98 425.26 145.82 411.53 156.87 401.58C167.92 391.63 183.17 385.47 200 385.47C216.82 385.47 232.08 391.63 243.13 401.58C254.18 411.53 261.02 425.26 261.02 440.4C261.02 455.55 254.18 469.28 243.13 479.23C232.08 489.17 216.82 495.33 200 495.33C183.17 495.33 167.92 489.17 156.87 479.23C145.82 469.28 138.98 455.55 138.98 440.4ZM153.75 440.4C153.75 451.88 158.93 462.29 167.31 469.83C175.68 477.37 187.25 482.04 200 482.04C212.75 482.04 224.31 477.37 232.69 469.83C241.06 462.29 246.25 451.88 246.25 440.4C246.25 428.92 241.06 418.51 232.69 410.97C224.31 403.44 212.75 398.77 200 398.77C187.25 398.77 175.68 403.44 167.31 410.97C158.93 418.51 153.75 428.92 153.75 440.4Z" id="a2u2qFeOAE"></path><path d="M192.61 369.93C192.61 366.2 192.61 347.56 192.61 314C192.61 280.45 192.61 261.81 192.61 258.08C192.61 256.25 193.44 254.58 194.78 253.38C196.11 252.18 197.96 251.43 200 251.43C202.04 251.43 203.88 252.18 205.22 253.38C206.55 254.58 207.38 256.25 207.38 258.08C207.38 261.81 207.38 280.45 207.38 314C207.38 347.56 207.38 366.2 207.38 369.92C207.38 371.76 206.56 373.42 205.22 374.62C203.88 375.83 202.04 376.57 200 376.57C197.96 376.57 196.11 375.83 194.78 374.63C193.44 373.42 192.61 371.76 192.61 369.93Z" id="acoMnVi8P"></path><path d="M138.98 440.4C138.98 425.26 145.82 411.53 156.87 401.58C167.92 391.63 183.17 385.47 200 385.47C216.82 385.47 232.08 391.63 243.13 401.58C254.18 411.53 261.02 425.26 261.02 440.4C261.02 455.55 254.18 469.28 243.13 479.23C232.08 489.17 216.82 495.33 200 495.33C183.17 495.33 167.92 489.17 156.87 479.23C145.82 469.28 138.98 455.55 138.98 440.4ZM153.75 440.4C153.75 451.88 158.93 462.29 167.31 469.83C175.68 477.37 187.25 482.04 200 482.04C212.75 482.04 224.31 477.37 232.69 469.83C241.06 462.29 246.25 451.88 246.25 440.4C246.25 428.92 241.06 418.51 232.69 410.97C224.31 403.44 212.75 398.77 200 398.77C187.25 398.77 175.68 403.44 167.31 410.97C158.93 418.51 153.75 428.92 153.75 440.4Z" id="bxr3iSES2"></path><path d="M192.61 369.93C192.61 366.2 192.61 347.56 192.61 314C192.61 280.45 192.61 261.81 192.61 258.08C192.61 256.25 193.44 254.58 194.78 253.38C196.11 252.18 197.96 251.43 200 251.43C202.04 251.43 203.88 252.18 205.22 253.38C206.55 254.58 207.38 256.25 207.38 258.08C207.38 261.81 207.38 280.45 207.38 314C207.38 347.56 207.38 366.2 207.38 369.92C207.38 371.76 206.56 373.42 205.22 374.62C203.88 375.83 202.04 376.57 200 376.57C197.96 376.57 196.11 375.83 194.78 374.63C193.44 373.42 192.61 371.76 192.61 369.93Z" id="a55YoCD6yT"></path><path d="M138.63 387.6C136.6 387.6 134.75 386.85 133.41 385.65C132.08 384.45 131.25 382.79 131.25 380.95C131.25 380.86 131.25 380.42 131.25 379.62C131.25 378.82 131.25 378.37 131.25 378.28C131.25 362.82 127.87 347.71 121.55 333.89C115.23 320.06 105.97 307.54 94.19 297.25C78.4 283.46 66.32 266.91 58.49 248.86C50.67 230.81 47.09 211.24 48.3 191.4C50.39 157.28 66.48 126.39 91.51 103.39C116.54 80.4 150.5 65.3 188.33 62.75C209.74 61.31 230.66 63.79 250.14 69.91C269.62 76.02 287.66 85.77 303.32 98.85C318.77 111.76 330.92 127.35 339.21 144.45C347.5 161.55 351.93 180.17 351.93 199.13C351.93 217.33 348 235 340.5 251.34C333 267.68 321.94 282.7 307.66 295.6C295.11 306.94 285.39 319.95 278.79 333.96C272.2 347.96 268.75 362.96 268.75 378.28C268.75 378.37 268.75 378.81 268.75 379.61C268.75 380.42 268.75 380.86 268.75 380.95C268.75 382.79 267.92 384.45 266.58 385.65C265.25 386.85 263.4 387.6 261.36 387.6C253.18 387.6 232.73 387.6 200 387.6C163.18 387.6 142.73 387.6 138.63 387.6ZM254.05 374.3C254.62 357.94 258.71 341.97 266.01 327.07C273.3 312.16 283.81 298.32 297.2 286.22C310.08 274.57 320.07 261.01 326.84 246.26C333.61 231.51 337.16 215.56 337.16 199.13C337.16 182.01 333.16 165.2 325.67 149.76C318.19 134.32 307.22 120.25 293.27 108.6C279.14 96.79 262.85 87.99 245.26 82.47C227.67 76.94 208.77 74.7 189.43 76.01C155.29 78.31 124.64 91.94 102.05 112.69C79.46 133.45 64.93 161.33 63.05 192.13C61.95 210.05 65.18 227.72 72.25 244.02C79.31 260.32 90.22 275.25 104.48 287.71C117.17 298.8 127.26 312.18 134.31 326.93C141.37 341.68 145.39 357.78 145.95 374.3C153.16 374.3 171.17 374.3 200 374.3C232.43 374.3 250.45 374.3 254.05 374.3Z" id="c2uaKecLwO"></path><path d="M88.18 150.06C87.76 144.41 87.67 138.53 87.97 132.59C88.27 126.65 88.98 120.64 90.16 114.74C80.17 125.27 71.99 137.22 66.09 150.2C60.2 163.17 56.57 177.16 55.68 191.77C54.47 211.54 58.17 230.41 65.77 247.5C73.38 264.58 84.9 279.87 99.33 292.48C111.07 302.73 120.29 314.85 126.84 328.05C133.38 341.26 137.26 355.56 138.31 370.19C134.9 370.8 131.92 372.46 129.78 374.77C127.65 377.09 126.36 380.06 126.36 383.31C126.36 387 128.03 390.35 130.72 392.77C133.41 395.19 137.12 396.69 141.23 396.69C137.12 396.69 133.41 398.19 130.72 400.61C128.03 403.03 126.36 406.38 126.36 410.08C126.36 413.77 128.03 417.12 130.72 419.54C133.41 421.96 137.12 423.46 141.23 423.46C137.12 423.46 133.41 424.96 130.72 427.38C128.03 429.8 126.36 433.14 126.36 436.84C126.36 440.54 128.03 443.88 130.72 446.3C133.41 448.73 137.12 450.22 141.23 450.22C143.11 450.22 152.51 450.22 169.44 450.22C186.37 450.22 195.78 450.22 197.66 450.22C197.74 426.58 198.63 403.2 195.94 380.46C193.25 357.72 186.97 335.62 172.73 314.55C155 287.54 135.23 261.76 119.2 235.06C103.18 208.36 90.91 180.74 88.18 150.06Z" id="b2uNNENIrl"></path><path d="M138.63 387.6C136.6 387.6 134.75 386.85 133.41 385.65C132.08 384.45 131.25 382.79 131.25 380.95C131.25 380.86 131.25 380.42 131.25 379.62C131.25 378.82 131.25 378.37 131.25 378.28C131.25 362.82 127.87 347.71 121.55 333.89C115.23 320.06 105.97 307.54 94.19 297.25C78.4 283.46 66.32 266.91 58.49 248.86C50.67 230.81 47.09 211.24 48.3 191.4C50.39 157.28 66.48 126.39 91.51 103.39C116.54 80.4 150.5 65.3 188.33 62.75C209.74 61.31 230.66 63.79 250.14 69.91C269.62 76.02 287.66 85.77 303.32 98.85C318.77 111.76 330.92 127.35 339.21 144.45C347.5 161.55 351.93 180.17 351.93 199.13C351.93 217.33 348 235 340.5 251.34C333 267.68 321.94 282.7 307.66 295.6C295.11 306.94 285.39 319.95 278.79 333.96C272.2 347.96 268.75 362.96 268.75 378.28C268.75 378.37 268.75 378.81 268.75 379.61C268.75 380.42 268.75 380.86 268.75 380.95C268.75 382.79 267.92 384.45 266.58 385.65C265.25 386.85 263.4 387.6 261.36 387.6C253.18 387.6 232.73 387.6 200 387.6C163.18 387.6 142.73 387.6 138.63 387.6ZM254.05 374.3C254.62 357.94 258.71 341.97 266.01 327.07C273.3 312.16 283.81 298.32 297.2 286.22C310.08 274.57 320.07 261.01 326.84 246.26C333.61 231.51 337.16 215.56 337.16 199.13C337.16 182.01 333.16 165.2 325.67 149.76C318.19 134.32 307.22 120.25 293.27 108.6C279.14 96.79 262.85 87.99 245.26 82.47C227.67 76.94 208.77 74.7 189.43 76.01C155.29 78.31 124.64 91.94 102.05 112.69C79.46 133.45 64.93 161.33 63.05 192.13C61.95 210.05 65.18 227.72 72.25 244.02C79.31 260.32 90.22 275.25 104.48 287.71C117.17 298.8 127.26 312.18 134.31 326.93C141.37 341.68 145.39 357.78 145.95 374.3C153.16 374.3 171.17 374.3 200 374.3C232.43 374.3 250.45 374.3 254.05 374.3Z" id="b2xraslodg"></path><path d="M140.08 396.69C136.29 396.69 132.86 395.31 130.38 393.07C127.9 390.84 126.36 387.75 126.36 384.34C126.36 384.27 126.36 383.93 126.36 383.31C126.36 382.69 126.36 382.35 126.36 382.28C126.36 378.87 127.9 375.78 130.38 373.54C132.86 371.31 136.29 369.93 140.08 369.93C144.08 369.93 164.05 369.93 200 369.93C235.95 369.93 255.92 369.93 259.91 369.93C263.7 369.93 267.13 371.31 269.62 373.54C272.1 375.78 273.64 378.87 273.64 382.28C273.64 382.35 273.64 382.69 273.64 383.31C273.64 383.93 273.64 384.27 273.64 384.34C273.64 387.75 272.1 390.84 269.62 393.07C267.13 395.31 263.7 396.69 259.91 396.69C251.92 396.69 231.95 396.69 200 396.69C164.05 396.69 144.08 396.69 140.08 396.69Z" id="a29F3ke738"></path><path d="M141.23 456.87C135.09 456.87 129.53 454.62 125.5 451C121.47 447.37 118.98 442.36 118.98 436.84C118.98 431.32 121.47 426.31 125.5 422.68C129.53 419.06 135.09 416.81 141.23 416.81C145.15 416.81 164.74 416.81 200 416.81C235.26 416.81 254.85 416.81 258.77 416.81C264.9 416.81 270.47 419.06 274.5 422.68C278.52 426.31 281.02 431.32 281.02 436.84C281.02 442.36 278.52 447.37 274.5 451C270.47 454.62 264.91 456.87 258.77 456.87C250.93 456.87 231.34 456.87 200 456.87C164.74 456.87 145.15 456.87 141.23 456.87ZM133.75 436.84C133.75 438.7 134.59 440.38 135.94 441.6C137.29 442.82 139.17 443.58 141.23 443.58C145.15 443.58 164.74 443.58 200 443.58C235.26 443.58 254.85 443.58 258.77 443.58C260.83 443.58 262.7 442.82 264.06 441.6C265.41 440.38 266.25 438.7 266.25 436.84C266.25 434.98 265.41 433.3 264.06 432.08C262.7 430.86 260.83 430.11 258.77 430.11C254.85 430.11 235.26 430.11 200 430.11C194.12 430.11 147.11 430.11 141.23 430.11C138.61 430.61 136.84 431.27 135.94 432.08C134.58 433.3 133.75 434.98 133.75 436.84Z" id="c4QTraDLgE"></path><path d="M140.08 396.69C136.29 396.69 132.86 395.31 130.38 393.07C127.9 390.84 126.36 387.75 126.36 384.34C126.36 384.27 126.36 383.93 126.36 383.31C126.36 382.69 126.36 382.35 126.36 382.28C126.36 378.87 127.9 375.78 130.38 373.54C132.86 371.31 136.29 369.93 140.08 369.93C144.08 369.93 164.05 369.93 200 369.93C235.95 369.93 255.92 369.93 259.91 369.93C263.7 369.93 267.13 371.31 269.62 373.54C272.1 375.78 273.64 378.87 273.64 382.28C273.64 382.35 273.64 382.69 273.64 383.31C273.64 383.93 273.64 384.27 273.64 384.34C273.64 387.75 272.1 390.84 269.62 393.07C267.13 395.31 263.7 396.69 259.91 396.69C251.92 396.69 231.95 396.69 200 396.69C164.05 396.69 144.08 396.69 140.08 396.69Z" id="hk0XegFSY"></path><path d="M141.23 403.34C135.09 403.34 129.53 401.09 125.5 397.47C121.47 393.84 118.98 388.83 118.98 383.31C118.98 377.78 121.47 372.78 125.5 369.15C129.53 365.52 135.09 363.28 141.23 363.28C145.15 363.28 164.74 363.28 200 363.28C235.26 363.28 254.85 363.28 258.77 363.28C264.9 363.28 270.47 365.52 274.5 369.15C278.52 372.78 281.02 377.78 281.02 383.31C281.02 388.83 278.52 393.84 274.5 397.47C270.47 401.09 264.91 403.34 258.77 403.34C250.93 403.34 231.34 403.34 200 403.34C164.74 403.34 145.15 403.34 141.23 403.34ZM133.75 383.31C133.75 385.17 134.59 386.85 135.94 388.07C137.29 389.29 139.17 390.05 141.23 390.05C145.15 390.05 164.74 390.05 200 390.05C235.26 390.05 254.85 390.05 258.77 390.05C260.83 390.05 262.7 389.29 264.06 388.07C265.41 386.85 266.25 385.17 266.25 383.31C266.25 381.45 265.41 379.77 264.06 378.55C262.7 377.33 260.83 376.57 258.77 376.57C254.85 376.57 235.26 376.57 200 376.57C194.12 376.57 147.11 376.57 141.23 376.57C138.61 377.08 136.84 377.73 135.94 378.55C134.58 379.77 133.75 381.45 133.75 383.31Z" id="a1u5ZQ3SD"></path><path d="M140.08 450.22C136.29 450.22 132.86 448.84 130.38 446.61C127.9 444.37 126.36 441.28 126.36 437.87C126.36 437.8 126.36 437.46 126.36 436.84C126.36 436.22 126.36 435.88 126.36 435.81C126.36 432.4 127.9 429.31 130.38 427.08C132.86 424.84 136.29 423.46 140.08 423.46C144.08 423.46 164.05 423.46 200 423.46C235.95 423.46 255.92 423.46 259.91 423.46C263.7 423.46 267.13 424.84 269.62 427.08C272.1 429.31 273.64 432.4 273.64 435.81C273.64 435.88 273.64 436.22 273.64 436.84C273.64 437.46 273.64 437.8 273.64 437.87C273.64 441.28 272.1 444.37 269.62 446.61C267.13 448.84 263.7 450.22 259.91 450.22C251.92 450.22 231.95 450.22 200 450.22C164.05 450.22 144.08 450.22 140.08 450.22Z" id="c1IXcH4X9n"></path><path d="M141.23 403.34C135.09 403.34 129.53 401.09 125.5 397.47C121.47 393.84 118.98 388.83 118.98 383.31C118.98 377.78 121.47 372.78 125.5 369.15C129.53 365.52 135.09 363.28 141.23 363.28C145.15 363.28 164.74 363.28 200 363.28C235.26 363.28 254.85 363.28 258.77 363.28C264.9 363.28 270.47 365.52 274.5 369.15C278.52 372.78 281.02 377.78 281.02 383.31C281.02 388.83 278.52 393.84 274.5 397.47C270.47 401.09 264.91 403.34 258.77 403.34C250.93 403.34 231.34 403.34 200 403.34C164.74 403.34 145.15 403.34 141.23 403.34ZM133.75 383.31C133.75 385.17 134.59 386.85 135.94 388.07C137.29 389.29 139.17 390.05 141.23 390.05C145.15 390.05 164.74 390.05 200 390.05C235.26 390.05 254.85 390.05 258.77 390.05C260.83 390.05 262.7 389.29 264.06 388.07C265.41 386.85 266.25 385.17 266.25 383.31C266.25 381.45 265.41 379.77 264.06 378.55C262.7 377.33 260.83 376.57 258.77 376.57C254.85 376.57 235.26 376.57 200 376.57C194.12 376.57 147.11 376.57 141.23 376.57C138.61 377.08 136.84 377.73 135.94 378.55C134.58 379.77 133.75 381.45 133.75 383.31Z" id="a4l2jB3v4N"></path><path d="M140.08 450.22C136.29 450.22 132.86 448.84 130.38 446.61C127.9 444.37 126.36 441.28 126.36 437.87C126.36 437.8 126.36 437.46 126.36 436.84C126.36 436.22 126.36 435.88 126.36 435.81C126.36 432.4 127.9 429.31 130.38 427.08C132.86 424.84 136.29 423.46 140.08 423.46C144.08 423.46 164.05 423.46 200 423.46C235.95 423.46 255.92 423.46 259.91 423.46C263.7 423.46 267.13 424.84 269.62 427.08C272.1 429.31 273.64 432.4 273.64 435.81C273.64 435.88 273.64 436.22 273.64 436.84C273.64 437.46 273.64 437.8 273.64 437.87C273.64 441.28 272.1 444.37 269.62 446.61C267.13 448.84 263.7 450.22 259.91 450.22C251.92 450.22 231.95 450.22 200 450.22C164.05 450.22 144.08 450.22 140.08 450.22Z" id="ajPyf7yvU"></path><path d="M140.08 423.46C136.29 423.46 132.86 422.07 130.38 419.84C127.9 417.6 126.36 414.52 126.36 411.1C126.36 411.04 126.36 410.69 126.36 410.07C126.36 409.46 126.36 409.11 126.36 409.04C126.36 405.63 127.9 402.55 130.38 400.31C132.86 398.07 136.29 396.69 140.08 396.69C144.08 396.69 164.05 396.69 200 396.69C235.95 396.69 255.92 396.69 259.91 396.69C263.7 396.69 267.13 398.07 269.62 400.31C272.1 402.55 273.64 405.63 273.64 409.04C273.64 409.11 273.64 409.46 273.64 410.07C273.64 410.69 273.64 411.04 273.64 411.1C273.64 414.52 272.1 417.6 269.62 419.84C267.13 422.07 263.7 423.46 259.91 423.46C251.92 423.46 231.95 423.46 200 423.46C164.05 423.46 144.08 423.46 140.08 423.46Z" id="a2iUs8GuMG"></path><path d="M141.23 430.11C135.09 430.11 129.53 427.86 125.5 424.23C121.47 420.61 118.98 415.6 118.98 410.08C118.98 404.55 121.47 399.55 125.5 395.92C129.53 392.29 135.09 390.05 141.23 390.05C145.15 390.05 164.74 390.05 200 390.05C235.26 390.05 254.85 390.05 258.77 390.05C264.9 390.05 270.47 392.29 274.5 395.92C278.52 399.55 281.02 404.55 281.02 410.08C281.02 415.6 278.52 420.61 274.5 424.23C270.47 427.86 264.91 430.11 258.77 430.11C250.93 430.11 231.34 430.11 200 430.11C164.74 430.11 145.15 430.11 141.23 430.11ZM133.75 410.08C133.75 411.93 134.59 413.62 135.94 414.84C137.29 416.06 139.17 416.81 141.23 416.81C145.15 416.81 164.74 416.81 200 416.81C235.26 416.81 254.85 416.81 258.77 416.81C260.83 416.81 262.7 416.06 264.06 414.84C265.41 413.62 266.25 411.93 266.25 410.08C266.25 408.22 265.41 406.54 264.06 405.32C262.7 404.1 260.83 403.34 258.77 403.34C254.85 403.34 235.26 403.34 200 403.34C194.12 403.34 147.11 403.34 141.23 403.34C138.61 403.84 136.84 404.5 135.94 405.32C134.58 406.53 133.75 408.22 133.75 410.08Z" id="e7OLh7Km8"></path><path d="M141.23 456.87C135.09 456.87 129.53 454.62 125.5 451C121.47 447.37 118.98 442.36 118.98 436.84C118.98 431.32 121.47 426.31 125.5 422.68C129.53 419.06 135.09 416.81 141.23 416.81C145.15 416.81 164.74 416.81 200 416.81C235.26 416.81 254.85 416.81 258.77 416.81C264.9 416.81 270.47 419.06 274.5 422.68C278.52 426.31 281.02 431.32 281.02 436.84C281.02 442.36 278.52 447.37 274.5 451C270.47 454.62 264.91 456.87 258.77 456.87C250.93 456.87 231.34 456.87 200 456.87C164.74 456.87 145.15 456.87 141.23 456.87ZM133.75 436.84C133.75 438.7 134.59 440.38 135.94 441.6C137.29 442.82 139.17 443.58 141.23 443.58C145.15 443.58 164.74 443.58 200 443.58C235.26 443.58 254.85 443.58 258.77 443.58C260.83 443.58 262.7 442.82 264.06 441.6C265.41 440.38 266.25 438.7 266.25 436.84C266.25 434.98 265.41 433.3 264.06 432.08C262.7 430.86 260.83 430.11 258.77 430.11C254.85 430.11 235.26 430.11 200 430.11C194.12 430.11 147.11 430.11 141.23 430.11C138.61 430.61 136.84 431.27 135.94 432.08C134.58 433.3 133.75 434.98 133.75 436.84Z" id="c25Ta1yctz"></path><path d="M140.08 423.46C136.29 423.46 132.86 422.07 130.38 419.84C127.9 417.6 126.36 414.52 126.36 411.1C126.36 411.04 126.36 410.69 126.36 410.07C126.36 409.46 126.36 409.11 126.36 409.04C126.36 405.63 127.9 402.55 130.38 400.31C132.86 398.07 136.29 396.69 140.08 396.69C144.08 396.69 164.05 396.69 200 396.69C235.95 396.69 255.92 396.69 259.91 396.69C263.7 396.69 267.13 398.07 269.62 400.31C272.1 402.55 273.64 405.63 273.64 409.04C273.64 409.11 273.64 409.46 273.64 410.07C273.64 410.69 273.64 411.04 273.64 411.1C273.64 414.52 272.1 417.6 269.62 419.84C267.13 422.07 263.7 423.46 259.91 423.46C251.92 423.46 231.95 423.46 200 423.46C164.05 423.46 144.08 423.46 140.08 423.46Z" id="a6xsa62Seg"></path><path d="M141.23 430.11C135.09 430.11 129.53 427.86 125.5 424.23C121.47 420.61 118.98 415.6 118.98 410.08C118.98 404.55 121.47 399.55 125.5 395.92C129.53 392.29 135.09 390.05 141.23 390.05C145.15 390.05 164.74 390.05 200 390.05C235.26 390.05 254.85 390.05 258.77 390.05C264.9 390.05 270.47 392.29 274.5 395.92C278.52 399.55 281.02 404.55 281.02 410.08C281.02 415.6 278.52 420.61 274.5 424.23C270.47 427.86 264.91 430.11 258.77 430.11C250.93 430.11 231.34 430.11 200 430.11C164.74 430.11 145.15 430.11 141.23 430.11ZM133.75 410.08C133.75 411.93 134.59 413.62 135.94 414.84C137.29 416.06 139.17 416.81 141.23 416.81C145.15 416.81 164.74 416.81 200 416.81C235.26 416.81 254.85 416.81 258.77 416.81C260.83 416.81 262.7 416.06 264.06 414.84C265.41 413.62 266.25 411.93 266.25 410.08C266.25 408.22 265.41 406.54 264.06 405.32C262.7 404.1 260.83 403.34 258.77 403.34C254.85 403.34 235.26 403.34 200 403.34C194.12 403.34 147.11 403.34 141.23 403.34C138.61 403.84 136.84 404.5 135.94 405.32C134.58 406.53 133.75 408.22 133.75 410.08Z" id="d10MfhvIbd"></path><path d="M358.95 274.05C358.56 273.98 358.18 273.86 357.8 273.7C357.42 273.55 355.54 272.76 352.15 271.36C348.77 269.95 346.88 269.17 346.51 269.01C345.06 268.41 344 267.31 343.48 266.02C342.95 264.74 342.94 263.26 343.58 261.9C344.23 260.54 345.4 259.55 346.77 259.05C348.14 258.56 349.72 258.55 351.17 259.16C351.55 259.31 353.43 260.09 356.81 261.5C360.2 262.91 362.08 263.69 362.46 263.85C363.91 264.45 364.96 265.55 365.49 266.84C366.02 268.12 366.03 269.6 365.38 270.96C364.91 271.97 364.14 272.77 363.22 273.32C362.3 273.87 361.23 274.17 360.13 274.17C359.74 274.17 359.34 274.13 358.95 274.05Z" id="b1ffgLbRB"></path><path d="M140.54 68.41C139.59 67.82 138.83 66.95 138.39 65.88C138.2 65.42 137.23 63.08 135.5 58.87C133.77 54.66 132.81 52.32 132.62 51.85C132.05 50.46 132.13 48.99 132.73 47.73C133.32 46.46 134.43 45.42 135.91 44.88C137.4 44.35 138.97 44.43 140.31 44.98C141.66 45.54 142.77 46.58 143.35 47.97C143.54 48.44 144.5 50.78 146.23 54.99C147.96 59.2 148.92 61.53 149.11 62C149.69 63.39 149.6 64.86 149.01 66.13C148.41 67.39 147.3 68.43 145.82 68.97C145.48 69.09 145.14 69.18 144.79 69.24C144.44 69.31 144.1 69.34 143.75 69.34C142.6 69.34 141.48 69.01 140.54 68.41Z" id="b3cfPlGORi"></path><path d="M347.32 152.8C346.37 152.2 345.61 151.34 345.17 150.27C344.6 148.88 344.68 147.41 345.28 146.15C345.87 144.88 346.98 143.84 348.46 143.3C348.89 143.15 351.04 142.37 354.91 140.97C358.78 139.57 360.93 138.79 361.36 138.64C362.85 138.11 364.42 138.18 365.77 138.74C367.11 139.3 368.23 140.34 368.8 141.73C369.37 143.12 369.28 144.59 368.69 145.85C368.09 147.11 366.98 148.16 365.5 148.7C365.07 148.85 362.92 149.63 359.05 151.03C355.18 152.43 353.03 153.21 352.6 153.36C352.26 153.48 351.92 153.57 351.57 153.63C351.22 153.69 350.88 153.72 350.53 153.72C349.38 153.72 348.26 153.39 347.32 152.8Z" id="h1xYaFgAeB"></path><path d="M34.77 265.76C33.83 265.17 33.06 264.3 32.62 263.23C32.05 261.84 32.13 260.37 32.73 259.11C33.33 257.85 34.44 256.8 35.92 256.27C36.32 256.12 38.36 255.38 42.02 254.06C45.69 252.73 47.72 252 48.13 251.85C49.61 251.31 51.18 251.39 52.53 251.95C53.87 252.51 54.99 253.55 55.56 254.94C56.13 256.33 56.05 257.81 55.45 259.07C54.85 260.33 53.74 261.38 52.26 261.91C51.85 262.06 49.82 262.79 46.16 264.12C42.49 265.44 40.46 266.17 40.05 266.32C39.71 266.44 39.37 266.53 39.02 266.59C38.68 266.66 38.33 266.68 37.99 266.68C36.83 266.68 35.71 266.36 34.77 265.76Z" id="anvnlYjNu"></path><path d="M265.71 67.87C265.32 67.79 264.93 67.68 264.55 67.52C263.1 66.92 262.05 65.82 261.52 64.53C260.99 63.24 260.99 61.77 261.63 60.41C261.78 60.09 262.54 58.49 263.9 55.62C265.26 52.74 266.01 51.14 266.16 50.83C266.81 49.46 267.98 48.48 269.35 47.98C270.73 47.49 272.3 47.48 273.75 48.08C275.2 48.69 276.25 49.79 276.78 51.07C277.31 52.36 277.32 53.84 276.67 55.2C276.52 55.52 275.77 57.11 274.41 59.99C273.05 62.86 272.29 64.46 272.14 64.78C271.66 65.78 270.9 66.58 269.98 67.13C269.06 67.68 267.98 67.98 266.88 67.98C266.49 67.98 266.1 67.95 265.71 67.87Z" id="d3JZDVO8E8"></path></defs><g><g><g><use xlink:href="#aa0xGG3ZoG" opacity="1" fill="#fde9a4" fill-opacity="1"></use><g><use xlink:href="#aa0xGG3ZoG" opacity="1" fill-opacity="0" stroke="#000000" stroke-width="1" stroke-opacity="0"></use></g></g><g><use xlink:href="#a378SRm0YB" opacity="1" fill="#2e4c59" fill-opacity="1"></use><g><use xlink:href="#a378SRm0YB" opacity="1" fill-opacity="0" stroke="#000000" stroke-width="1" stroke-opacity="0"></use></g></g><g><use xlink:href="#hcieJSIZO" opacity="1" fill="#2e4c59" fill-opacity="1"></use><g><use xlink:href="#hcieJSIZO" opacity="1" fill-opacity="0" stroke="#000000" stroke-width="1" stroke-opacity="0"></use></g></g><g><use xlink:href="#b2sYgvRBha" opacity="1" fill="#2e4c59" fill-opacity="1"></use><g><use xlink:href="#b2sYgvRBha" opacity="1" fill-opacity="0" stroke="#000000" stroke-width="1" stroke-opacity="0"></use></g></g><g><use xlink:href="#d171SbVSIQ" opacity="1" fill="#2e4c59" fill-opacity="1"></use><g><use xlink:href="#d171SbVSIQ" opacity="1" fill-opacity="0" stroke="#000000" stroke-width="1" stroke-opacity="0"></use></g></g><g><use xlink:href="#cr3hYVFBj" opacity="1" fill="#ffffff" fill-opacity="1"></use><g><use xlink:href="#cr3hYVFBj" opacity="1" fill-opacity="0" stroke="#000000" stroke-width="1" stroke-opacity="0"></use></g></g><g><use xlink:href="#b85TNEVFWZ" opacity="1" fill="#2e4c59" fill-opacity="1"></use><g><use xlink:href="#b85TNEVFWZ" opacity="1" fill-opacity="0" stroke="#000000" stroke-width="1" stroke-opacity="0"></use></g></g><g><use xlink:href="#bf1Hhwxe5" opacity="1" fill="#2e4c59" fill-opacity="1"></use><g><use xlink:href="#bf1Hhwxe5" opacity="1" fill-opacity="0" stroke="#000000" stroke-width="1" stroke-opacity="0"></use></g></g><g><use xlink:href="#b7h2A9FTj" opacity="1" fill="#2e4c59" fill-opacity="1"></use><g><use xlink:href="#b7h2A9FTj" opacity="1" fill-opacity="0" stroke="#000000" stroke-width="1" stroke-opacity="0"></use></g></g><g><use xlink:href="#a4VmKdUXw" opacity="1" fill="#2e4c59" fill-opacity="1"></use><g><use xlink:href="#a4VmKdUXw" opacity="1" fill-opacity="0" stroke="#000000" stroke-width="1" stroke-opacity="0"></use></g></g><g><use xlink:href="#b3yIhdYj9" opacity="1" fill="#b3b8bd" fill-opacity="1"></use><g><use xlink:href="#b3yIhdYj9" opacity="1" fill-opacity="0" stroke="#000000" stroke-width="1" stroke-opacity="0"></use></g></g><g><use xlink:href="#a3g8rvxgyN" opacity="1" fill="#000000" fill-opacity="0"></use><g><use xlink:href="#a3g8rvxgyN" opacity="1" fill-opacity="0" stroke="#000000" stroke-width="1" stroke-opacity="0"></use></g></g><g><use xlink:href="#a5kQrQ9LL" opacity="1" fill="#000000" fill-opacity="0"></use><g><use xlink:href="#a5kQrQ9LL" opacity="1" fill-opacity="0" stroke="#000000" stroke-width="1" stroke-opacity="0"></use></g></g><g><use xlink:href="#awrDKIgx" opacity="1" fill="#2e4c59" fill-opacity="1"></use><g><use xlink:href="#awrDKIgx" opacity="1" fill-opacity="0" stroke="#000000" stroke-width="1" stroke-opacity="0"></use></g></g><g><use xlink:href="#a2u2qFeOAE" opacity="1" fill="#2e4c59" fill-opacity="1"></use><g><use xlink:href="#a2u2qFeOAE" opacity="1" fill-opacity="0" stroke="#000000" stroke-width="1" stroke-opacity="0"></use></g></g><g><use xlink:href="#acoMnVi8P" opacity="1" fill="#000000" fill-opacity="0"></use><g><use xlink:href="#acoMnVi8P" opacity="1" fill-opacity="0" stroke="#000000" stroke-width="1" stroke-opacity="0"></use></g></g><g><use xlink:href="#bxr3iSES2" opacity="1" fill="#000000" fill-opacity="0"></use><g><use xlink:href="#bxr3iSES2" opacity="1" fill-opacity="0" stroke="#000000" stroke-width="1" stroke-opacity="0"></use></g></g><g><use xlink:href="#a55YoCD6yT" opacity="1" fill="#2e4c59" fill-opacity="1"></use><g><use xlink:href="#a55YoCD6yT" opacity="1" fill-opacity="0" stroke="#000000" stroke-width="1" stroke-opacity="0"></use></g></g><g><use xlink:href="#c2uaKecLwO" opacity="1" fill="#2e4c59" fill-opacity="1"></use><g><use xlink:href="#c2uaKecLwO" opacity="1" fill-opacity="0" stroke="#000000" stroke-width="1" stroke-opacity="0"></use></g></g><g><use xlink:href="#b2uNNENIrl" opacity="1" fill="#000000" fill-opacity="0"></use><g><use xlink:href="#b2uNNENIrl" opacity="1" fill-opacity="0" stroke="#000000" stroke-width="1" stroke-opacity="0"></use></g></g><g><use xlink:href="#b2xraslodg" opacity="1" fill="#000000" fill-opacity="0"></use><g><use xlink:href="#b2xraslodg" opacity="1" fill-opacity="0" stroke="#000000" stroke-width="1" stroke-opacity="0"></use></g></g><g><use xlink:href="#a29F3ke738" opacity="1" fill="#b3b8bd" fill-opacity="1"></use><g><use xlink:href="#a29F3ke738" opacity="1" fill-opacity="0" stroke="#000000" stroke-width="1" stroke-opacity="0"></use></g></g><g><use xlink:href="#c4QTraDLgE" opacity="1" fill="#000000" fill-opacity="0"></use><g><use xlink:href="#c4QTraDLgE" opacity="1" fill-opacity="0" stroke="#000000" stroke-width="1" stroke-opacity="0"></use></g></g><g><use xlink:href="#hk0XegFSY" opacity="1" fill="#000000" fill-opacity="0"></use><g><use xlink:href="#hk0XegFSY" opacity="1" fill-opacity="0" stroke="#000000" stroke-width="1" stroke-opacity="0"></use></g></g><g><use xlink:href="#a1u5ZQ3SD" opacity="1" fill="#2e4c59" fill-opacity="1"></use><g><use xlink:href="#a1u5ZQ3SD" opacity="1" fill-opacity="0" stroke="#000000" stroke-width="1" stroke-opacity="0"></use></g></g><g><use xlink:href="#c1IXcH4X9n" opacity="1" fill="#000000" fill-opacity="0"></use><g><use xlink:href="#c1IXcH4X9n" opacity="1" fill-opacity="0" stroke="#000000" stroke-width="1" stroke-opacity="0"></use></g></g><g><use xlink:href="#a4l2jB3v4N" opacity="1" fill="#000000" fill-opacity="0"></use><g><use xlink:href="#a4l2jB3v4N" opacity="1" fill-opacity="0" stroke="#000000" stroke-width="1" stroke-opacity="0"></use></g></g><g><use xlink:href="#ajPyf7yvU" opacity="1" fill="#b3b8bd" fill-opacity="1"></use><g><use xlink:href="#ajPyf7yvU" opacity="1" fill-opacity="0" stroke="#000000" stroke-width="1" stroke-opacity="0"></use></g></g><g><use xlink:href="#a2iUs8GuMG" opacity="1" fill="#b3b8bd" fill-opacity="1"></use><g><use xlink:href="#a2iUs8GuMG" opacity="1" fill-opacity="0" stroke="#000000" stroke-width="1" stroke-opacity="0"></use></g></g><g><use xlink:href="#e7OLh7Km8" opacity="1" fill="#000000" fill-opacity="0"></use><g><use xlink:href="#e7OLh7Km8" opacity="1" fill-opacity="0" stroke="#000000" stroke-width="1" stroke-opacity="0"></use></g></g><g><use xlink:href="#c25Ta1yctz" opacity="1" fill="#2e4c59" fill-opacity="1"></use><g><use xlink:href="#c25Ta1yctz" opacity="1" fill-opacity="0" stroke="#000000" stroke-width="1" stroke-opacity="0"></use></g></g><g><use xlink:href="#a6xsa62Seg" opacity="1" fill="#000000" fill-opacity="0"></use><g><use xlink:href="#a6xsa62Seg" opacity="1" fill-opacity="0" stroke="#000000" stroke-width="1" stroke-opacity="0"></use></g></g><g><use xlink:href="#d10MfhvIbd" opacity="1" fill="#2e4c59" fill-opacity="1"></use><g><use xlink:href="#d10MfhvIbd" opacity="1" fill-opacity="0" stroke="#000000" stroke-width="1" stroke-opacity="0"></use></g></g><g><use xlink:href="#b1ffgLbRB" opacity="1" fill="#2e4c59" fill-opacity="1"></use><g><use xlink:href="#b1ffgLbRB" opacity="1" fill-opacity="0" stroke="#000000" stroke-width="1" stroke-opacity="0"></use></g></g><g><use xlink:href="#b3cfPlGORi" opacity="1" fill="#2e4c59" fill-opacity="1"></use><g><use xlink:href="#b3cfPlGORi" opacity="1" fill-opacity="0" stroke="#000000" stroke-width="1" stroke-opacity="0"></use></g></g><g><use xlink:href="#h1xYaFgAeB" opacity="1" fill="#2e4c59" fill-opacity="1"></use><g><use xlink:href="#h1xYaFgAeB" opacity="1" fill-opacity="0" stroke="#000000" stroke-width="1" stroke-opacity="0"></use></g></g><g><use xlink:href="#anvnlYjNu" opacity="1" fill="#2e4c59" fill-opacity="1"></use><g><use xlink:href="#anvnlYjNu" opacity="1" fill-opacity="0" stroke="#000000" stroke-width="1" stroke-opacity="0"></use></g></g><g><use xlink:href="#d3JZDVO8E8" opacity="1" fill="#2e4c59" fill-opacity="1"></use><g><use xlink:href="#d3JZDVO8E8" opacity="1" fill-opacity="0" stroke="#000000" stroke-width="1" stroke-opacity="0"></use></g></g></g></g></svg>